<svg id="visual" viewBox="0 0 960 540" width="960" height="540" xmlns="http://www.w3.org/2000/svg" xmlns:xlink="http://www.w3.org/1999/xlink" version="1.1"><rect x="0" y="0" width="960" height="540" fill="#D9EEE1"></rect><path d="M0 21L32 22.8C64 24.7 128 28.3 192 31.3C256 34.3 320 36.7 384 33.7C448 30.7 512 22.3 576 20.7C640 19 704 24 768 25.8C832 27.7 896 26.3 928 25.7L960 25L960 0L928 0C896 0 832 0 768 0C704 0 640 0 576 0C512 0 448 0 384 0C320 0 256 0 192 0C128 0 64 0 32 0L0 0Z" fill="#282A35" stroke-linecap="round" stroke-linejoin="miter"></path></svg>